<svg width="882" height="550" viewBox="0 0 882 550" fill="none" xmlns="http://www.w3.org/2000/svg">
<path d="M165.729 309.901L152.918 282.297L117.918 302.505L165.729 309.901ZM100.344 275.651L135.418 295.901L141.48 292.401L106.406 272.151L100.344 275.651Z" fill="#C0C9E0"/>
<path d="M137.345 293.678L59.4029 248.678C49.8371 243.156 49.8371 234.201 59.4029 228.678L137.345 183.678" stroke="#C0C9E0" stroke-width="7"/>
<path d="M78.0183 143.678L181.941 203.678L181.941 213.678L78.0183 153.678L78.0183 143.678Z" fill="#DADADA"/>
<rect width="240" height="10" transform="matrix(0.866025 -0.5 2.20305e-08 1 181.941 203.678)" fill="#ECECEC"/>
<path d="M285.865 23.9283L389.788 83.9283L181.941 203.928L78.0184 143.928L285.865 23.9283Z" fill="#F5F5F5"/>
<g filter="url(#filter0_d_1902_542)">
<g clip-path="url(#clip0_1902_542)">
<rect width="187" height="41" rx="20.5" transform="matrix(0.866025 0.5 -0.866025 0.5 36.38 149.973)" fill="#DEE4F9"/>
<path d="M32.8766 176.95L41.6407 167.29L43.7712 168.52L39.06 173.42C38.0034 174.51 37.0854 175.4 36.0462 176.5L36.1328 176.55C38.0554 175.96 39.5796 175.42 41.4675 174.81L49.9373 172.08L51.9984 173.27L35.2668 178.33L32.8766 176.95ZM40.7011 181.467L50.2274 175.967L52.2366 177.127L42.7103 182.627L40.7011 181.467ZM53.016 175.517C52.2712 175.087 52.2539 174.537 52.9813 174.117C53.6915 173.707 54.6441 173.717 55.3889 174.147C56.1164 174.567 56.1683 175.137 55.4582 175.547C54.7307 175.967 53.7434 175.937 53.016 175.517ZM48.0465 185.988C46.7301 185.228 45.9334 184.128 45.7775 183.158L48.0118 182.948C48.2024 183.818 48.5834 184.538 49.6226 185.138C50.7485 185.788 51.8397 185.778 52.5671 185.358C53.4158 184.868 52.7403 184.018 52.0995 183.208C51.3027 182.188 50.5753 180.988 52.2034 180.048C53.7969 179.128 56.2737 179.178 58.4041 180.408C59.6685 181.138 60.2055 182.048 60.3614 182.838L58.1963 183.008C58.0058 182.358 57.694 181.758 56.9146 181.308C55.858 180.698 54.8534 180.718 54.1953 181.098C53.3812 181.568 53.9874 182.278 54.6629 183.108C55.4943 184.168 56.343 185.358 54.559 186.388C52.9482 187.318 50.3848 187.338 48.0465 185.988ZM56.5763 190.913C54.5498 189.743 55.0001 188.443 57.425 187.043L63.4179 183.583L65.4098 184.733L59.6593 188.053C58.0139 189.003 57.858 189.653 58.9838 190.303C59.8672 190.813 60.8891 190.923 62.6904 190.803L69.3069 186.983L71.2987 188.133L61.7724 193.633L60.127 192.683L61.4087 191.763L61.3568 191.733C59.4861 191.813 57.8926 191.673 56.5763 190.913ZM66.7628 196.794C65.1347 195.854 65.0654 194.554 66.7455 193.584C68.7893 192.404 71.5779 192.794 75.96 194.824C77.0512 194.174 77.6227 193.384 76.2371 192.584C75.2325 192.004 73.8122 191.724 72.4959 191.564L73.1194 190.344C74.6956 190.554 76.6874 190.964 78.2116 191.844C80.5845 193.214 80.1689 194.714 77.6227 196.184L71.907 199.484L70.2615 198.534L71.1795 197.824L71.1102 197.784C69.4994 197.714 67.9059 197.454 66.7628 196.794ZM68.9798 196.234C69.8112 196.714 70.8504 196.874 72.3573 196.904L74.6783 195.564C71.5259 194.124 69.8805 193.994 68.8066 194.614C67.8713 195.154 68.1311 195.744 68.9798 196.234ZM76.4656 202.396C75.0107 201.556 75.4091 200.706 76.9506 199.816L88.5034 193.146L90.5126 194.306L78.8559 201.036C78.3189 201.346 78.3536 201.586 78.5961 201.726C78.6827 201.776 78.752 201.816 78.9598 201.896L77.7127 202.916C77.3663 202.816 76.9679 202.686 76.4656 202.396ZM83.9388 206.431L96.6867 199.071L98.7132 200.241L85.9653 207.601L83.9388 206.431ZM89.1106 209.417L98.6368 203.917L100.265 204.857L99.1045 205.727L99.1565 205.757C100.889 205.757 102.586 205.917 103.885 206.667C105.911 207.837 105.444 209.147 103.036 210.537L97.0434 213.997L95.0342 212.837L100.767 209.527C102.43 208.567 102.586 207.917 101.477 207.277C100.594 206.767 99.5375 206.677 97.8747 206.677L91.1197 210.577L89.1106 209.417ZM102.881 217.647C100.75 216.417 101.339 215.197 103.331 214.047L108.164 211.257L106.778 210.457L108.267 209.597L109.861 210.397L112.719 209.007L114.382 209.967L111.749 211.487L114.243 212.927L112.65 213.847L110.155 212.407L105.306 215.207C104.18 215.857 103.989 216.447 104.977 217.017C105.306 217.207 105.825 217.367 106.241 217.467L105.132 218.527C104.422 218.317 103.591 218.057 102.881 217.647ZM110.172 221.857C107.574 220.357 107.384 218.107 110.519 216.297C113.619 214.507 117.672 214.627 119.889 215.907C122.401 217.357 121.95 219.197 119.248 220.757C118.85 220.987 118.434 221.187 118.14 221.297L111.956 217.727C110.294 218.867 110.363 220.147 112.008 221.097C112.857 221.587 113.827 221.847 114.987 221.997L114.399 223.137C112.926 222.967 111.419 222.577 110.172 221.857ZM113.307 216.907L117.88 219.547C119.525 218.597 119.733 217.637 118.348 216.837C117.152 216.147 115.178 216.067 113.307 216.907ZM116.242 225.081L125.768 219.581L127.396 220.521L125.854 221.611L125.906 221.641C127.812 221.321 129.544 221.481 130.566 222.071C131.033 222.341 131.258 222.551 131.414 222.801L129.336 223.601C129.111 223.351 128.92 223.181 128.522 222.951C127.76 222.511 126.27 222.291 124.174 222.821L118.251 226.241L116.242 225.081ZM123.658 229.362L134.379 223.172C136.319 222.052 138.588 221.782 140.701 223.002C141.359 223.382 141.827 223.812 142.087 224.162L140.164 224.812C139.991 224.512 139.697 224.262 139.35 224.062C138.519 223.582 137.532 223.652 136.371 224.322L125.65 230.512L123.658 229.362ZM130.292 224.032L131.781 223.172L133.288 223.922L137.116 226.132L135.522 227.052L130.292 224.032ZM130.852 233.796C129.224 232.856 129.155 231.556 130.835 230.586C132.879 229.406 135.667 229.796 140.049 231.826C141.14 231.176 141.712 230.386 140.326 229.586C139.322 229.006 137.901 228.726 136.585 228.566L137.209 227.346C138.785 227.556 140.777 227.966 142.301 228.846C144.674 230.216 144.258 231.716 141.712 233.186L135.996 236.486L134.351 235.536L135.269 234.826L135.199 234.786C133.589 234.716 131.995 234.456 130.852 233.796ZM133.069 233.236C133.9 233.716 134.94 233.876 136.447 233.906L138.768 232.566C135.615 231.126 133.97 230.996 132.896 231.616C131.961 232.156 132.22 232.746 133.069 233.236ZM142.443 240.488C139.879 239.008 139.741 236.808 142.893 234.988C146.08 233.148 150.116 233.358 152.627 234.808C153.84 235.508 154.238 236.298 154.29 237.048L152.038 237.228C151.969 236.668 151.709 236.198 151.068 235.828C149.44 234.888 146.981 235.008 144.954 236.178C142.945 237.338 142.703 238.738 144.296 239.658C145.093 240.118 146.184 240.308 147.241 240.358L146.721 241.598C145.093 241.538 143.551 241.128 142.443 240.488ZM150.97 245.411C148.372 243.911 148.182 241.661 151.317 239.851C154.417 238.061 158.47 238.181 160.687 239.461C163.198 240.911 162.748 242.751 160.046 244.311C159.648 244.541 159.232 244.741 158.938 244.851L152.754 241.281C151.091 242.421 151.161 243.701 152.806 244.651C153.655 245.141 154.625 245.401 155.785 245.551L155.196 246.691C153.724 246.521 152.217 246.131 150.97 245.411ZM154.105 240.461L158.678 243.101C160.323 242.151 160.531 241.191 159.145 240.391C157.95 239.701 155.976 239.621 154.105 240.461Z" fill="#2D3339"/>
</g>
<rect x="8.9407e-08" y="-1.5" width="190" height="44" rx="22" transform="matrix(0.866025 0.5 -0.866025 0.5 35.081 149.223)" stroke="white" stroke-width="3"/>
</g>
<path d="M220.832 79.4618L219.731 80.8267L221.25 81.703L272.269 111.13L273.018 111.563L273.768 111.13L324.787 81.703L326.306 80.8267L325.205 79.4618L274.186 16.2271L273.018 14.7801L271.851 16.2271L220.832 79.4618Z" fill="#474C59" stroke="#474C59" stroke-width="3"/>
<path d="M273.004 17.1875L272.9 51.4219L222.035 80.4375L273.004 17.1875Z" fill="url(#paint0_linear_1902_542)"/>
<path d="M273.004 17.1562L272.9 51.75L324.035 80.4375L273.004 17.1562Z" fill="url(#paint1_linear_1902_542)"/>
<path d="M272.785 51.4375L324.035 80.4375L273.098 109.831L222.035 80.4375L272.785 51.4375Z" fill="url(#paint2_linear_1902_542)"/>
<path d="M288.895 70.4556C286.504 69.0749 282.627 69.0749 280.235 70.4556C277.844 71.8363 277.844 74.0749 280.235 75.4556C282.627 76.8363 286.504 76.8363 288.895 75.4556C291.287 74.0749 291.287 71.8363 288.895 70.4556Z" fill="#6E7CA5"/>
<path d="M277.348 77.1223C274.957 75.7416 271.08 75.7416 268.688 77.1223C266.297 78.503 266.297 80.7416 268.688 82.1223C271.08 83.503 274.957 83.503 277.348 82.1223C279.74 80.7416 279.74 78.503 277.348 77.1223Z" fill="#6E7CA5"/>
<path d="M294.708 82.9772C295.583 81.0911 293.644 79.1524 290.377 78.647C287.111 78.1417 283.753 79.2609 282.877 81.1471C282.002 83.0332 283.941 84.9718 287.208 85.4772C290.474 85.9825 293.832 84.8633 294.708 82.9772Z" fill="#6E7CA5"/>
<path d="M283.161 87.8137C282.285 85.9276 278.927 84.8083 275.661 85.3137C272.394 85.8191 270.455 87.7577 271.33 89.6438C272.206 91.53 275.564 92.6492 278.83 92.1438C282.097 91.6385 284.036 89.6998 283.161 87.8137Z" fill="#6E7CA5"/>
<path d="M265.801 83.789C263.41 82.4083 259.533 82.4083 257.141 83.789C254.75 85.1697 254.75 87.4083 257.141 88.789C259.533 90.1697 263.41 90.1697 265.801 88.789C268.193 87.4083 268.193 85.1697 265.801 83.789Z" fill="#6E7CA5"/>
<path d="M263.161 78.0968C264.036 76.2107 262.097 74.272 258.83 73.7667C255.564 73.2613 252.206 74.3806 251.33 76.2667C250.455 78.1528 252.394 80.0914 255.661 80.5968C258.927 81.1022 262.285 79.9829 263.161 78.0968Z" fill="#6E7CA5"/>
<path d="M274.708 69.6C273.832 67.7139 270.474 66.5946 267.208 67.1C263.941 67.6054 262.002 69.544 262.877 71.4301C263.753 73.3162 267.111 74.4355 270.377 73.9301C273.644 73.4248 275.583 71.4861 274.708 69.6Z" fill="#6E7CA5"/>
<g clip-path="url(#clip1_1902_542)">
<path d="M225.194 69.5932L224.856 68.8639L224.062 68.741L177.767 61.5792L177.24 61.4976L176.78 61.767L142.989 81.5482L142.247 81.9826V82.8427L142.247 127.585V127.915L142.385 128.214L154.72 154.939L155.06 155.676L155.862 155.795L202.088 162.627L202.598 162.703L203.046 162.449L236.952 143.266L237.713 142.835V141.961V96.9657V96.6353L237.574 96.3355L225.194 69.5932Z" fill="#474C59" stroke="#474C59" stroke-width="3"/>
<path d="M223.87 94.5107L236.275 121.239L202.385 140.806L156.089 133.644L143.685 106.915L177.575 87.3488L223.87 94.5107Z" fill="url(#paint3_linear_1902_542)"/>
<path d="M143.784 106.87L156.119 133.475V154.275L143.784 127.67V106.87Z" fill="url(#paint4_linear_1902_542)"/>
<path d="M156.119 133.596L202.345 140.428V161.228L156.119 154.396V133.596Z" fill="url(#paint5_linear_1902_542)"/>
<path d="M160.494 147.412L185.105 151.05V155.029L160.494 151.391V147.412Z" fill="#474C59"/>
<path d="M236.251 121.245L202.345 140.428V161.228L236.251 142.046V121.245Z" fill="url(#paint6_linear_1902_542)"/>
<ellipse cx="3" cy="3" rx="3" ry="3" transform="matrix(0.866025 -0.5 -2.20305e-08 -1 228.48 143.096)" fill="#474C59"/>
<path d="M223.87 70.3083L236.275 97.0367L202.385 116.603L156.089 109.441L143.685 82.713L177.575 63.1464L223.87 70.3083Z" fill="url(#paint7_linear_1902_542)"/>
<path d="M143.784 82.6674L156.119 109.272V130.072L143.784 103.467V82.6674Z" fill="url(#paint8_linear_1902_542)"/>
<path d="M156.119 109.393L202.345 116.226V137.026L156.119 130.193V109.393Z" fill="url(#paint9_linear_1902_542)"/>
<path d="M160.494 122.955L185.105 126.593V130.572L160.494 126.935V122.955Z" fill="#474C59"/>
<path d="M236.251 97.043L202.345 116.226V137.026L236.251 117.843V97.043Z" fill="url(#paint10_linear_1902_542)"/>
<ellipse cx="3" cy="3" rx="3" ry="3" transform="matrix(0.866025 -0.5 -2.20305e-08 -1 228.48 119.077)" fill="#474C59"/>
</g>
<path d="M598.866 168.51L600.742 167.535C620.109 157.469 649.735 157.917 668.162 168.556L843.053 269.529" stroke="#474C59" stroke-width="4" stroke-dasharray="4 4"/>
<path d="M450.951 44.5291L596.443 128.529C615.575 139.575 615.575 157.483 596.443 168.529L503.49 222.196" stroke="#474C59" stroke-width="4" stroke-dasharray="4 4"/>
<path d="M318.36 344.616L366.17 337.22L331.171 317.012L318.36 344.616ZM348.671 330.616L451.294 271.366L445.232 267.866L342.608 327.116L348.671 330.616Z" fill="#474C59"/>
<path d="M272.887 116.584L272.387 116.872L272.387 117.45L272.387 197.45L272.387 198.027L272.887 198.316L584.657 378.355L585.157 378.644L585.657 378.356L689.58 318.379L690.08 318.09V317.512V237.512V236.935L689.58 236.646L377.81 56.6069L377.311 56.3182L376.811 56.6068L272.887 116.584Z" fill="#C0C9E0" stroke="#C0C9E0" stroke-width="2"/>
<path d="M377.31 57.3479L689.079 237.348L689.079 317.656L377.31 137.656L377.31 57.3479Z" fill="#F5F5F5"/>
<path d="M273.387 117.575L377.31 57.575L377.31 137.575L273.387 197.575L273.387 117.575Z" fill="#F5F5F5"/>
<path d="M377.31 137.575L689.079 317.575L585.156 377.575L273.387 197.575L377.31 137.575Z" fill="#E8E8E8"/>
<path d="M272.762 197.95L377.762 137.2M377.762 137.2L689.08 317.45M377.762 137.2V56.825" stroke="#C0C9E0" stroke-width="2" stroke-linecap="square" stroke-dasharray="2 6"/>
<path d="M461.949 192.381C453.936 192.381 447.479 196.109 435.6 202.968C435.473 203.041 435.346 203.115 435.218 203.188L435.112 203.249C429.078 206.733 424.421 209.422 421.284 211.795C418.187 214.139 416.097 216.516 416.097 219.487V244.487C416.097 247.459 418.187 249.835 421.284 252.179C424.421 254.553 429.078 257.241 435.112 260.725L435.218 260.787L435.6 261.007C447.479 267.866 453.936 271.594 461.949 271.594C469.962 271.594 476.418 267.866 488.298 261.007L488.679 260.787L488.785 260.725C494.82 257.241 499.477 254.553 502.613 252.179C505.711 249.835 507.801 247.458 507.801 244.487V244.39V244.293V244.197V244.101V244.006V243.912V243.818V243.724V243.631V243.539V243.447V243.356V243.265V243.175V243.086V242.997V242.908V242.82V242.733V242.646V242.559V242.474V242.388V242.303V242.219V242.135V242.052V241.969V241.887V241.805V241.724V241.643V241.563V241.483V241.404V241.325V241.247V241.169V241.092V241.015V240.939V240.863V240.788V240.713V240.638V240.564V240.491V240.418V240.345V240.273V240.202V240.131V240.06V239.99V239.92V239.851V239.782V239.713V239.645V239.578V239.51V239.444V239.378V239.312V239.246V239.181V239.117V239.053V238.989V238.926V238.863V238.8V238.738V238.677V238.615V238.555V238.494V238.434V238.375V238.315V238.256V238.198V238.14V238.082V238.025V237.968V237.912V237.855V237.8V237.744V237.689V237.635V237.58V237.526V237.473V237.42V237.367V237.314V237.262V237.21V237.159V237.108V237.057V237.007V236.957V236.907V236.857V236.808V236.76V236.711V236.663V236.615V236.568V236.521V236.474V236.428V236.381V236.336V236.29V236.245V236.2V236.155V236.111V236.067V236.023V235.98V235.937V235.894V235.851V235.809V235.767V235.725V235.684V235.642V235.601V235.561V235.52V235.48V235.441V235.401V235.362V235.323V235.284V235.245V235.207V235.169V235.131V235.093V235.056V235.019V234.982V234.946V234.909V234.873V234.837V234.801V234.766V234.731V234.696V234.661V234.626V234.592V234.558V234.524V234.49V234.456V234.423V234.39V234.357V234.324V234.291V234.259V234.227V234.195V234.163V234.131V234.1V234.068V234.037V234.006V233.976V233.945V233.915V233.884V233.854V233.824V233.794V233.765V233.735V233.706V233.677V233.648V233.619V233.59V233.561V233.533V233.504V233.476V233.448V233.42V233.392V233.364V233.337V233.309V233.282V233.255V233.228V233.2V233.174V233.147V233.12V233.093V233.067V233.04V233.014V232.988V232.962V232.936V232.91V232.884V232.858V232.832V232.806V232.781V232.755V232.73V232.704V232.679V232.654V232.629V232.604V232.578V232.553V232.528V232.504V232.479V232.454V232.429V232.404V232.38V232.355V232.33V232.306V232.281V232.256V232.232V232.207V232.183V232.158V232.134V232.109V232.085V232.061V232.036V232.012V231.987V231.963V231.939V231.914V231.89V231.865V231.841V231.816V231.792V231.767V231.743V231.718V231.694V231.669V231.645V231.62V231.595V231.57V231.546V231.521V231.496V231.471V231.446V231.421V231.396V231.371V231.346V231.321V231.296V231.27V231.245V231.219V231.194V231.168V231.143V231.117V231.091V231.065V231.039V231.013V230.987V230.961V230.934V230.908V230.881V230.855V230.828V230.801V230.774V230.747V230.72V230.693V230.665V230.638V230.61V230.583V230.555V230.527V230.499V230.47V230.442V230.414V230.385V230.356V230.327V230.298V230.269V230.24V230.21V230.18V230.151V230.121V230.09V230.06V230.03V229.999V229.968V229.937V229.906V229.875V229.843V229.812V229.78V229.748V229.716V229.683V229.651V229.618V229.585V229.552V229.518V229.485V229.451V229.417V229.383V229.349V229.314V229.279V229.244V229.209V229.173V229.138V229.102V229.066V229.029V228.993V228.956V228.919V228.881V228.844V228.806V228.768V228.73V228.691V228.652V228.613V228.574V228.534V228.494V228.454V228.414V228.373V228.332V228.291V228.25V228.208V228.166V228.124V228.081V228.038V227.995V227.952V227.908V227.864V227.82V227.775V227.73V227.685V227.639V227.593V227.547V227.501V227.454V227.407V227.359V227.312V227.264V227.215V227.166V227.117V227.068V227.018V226.968V226.918V226.867V226.816V226.764V226.713V226.661V226.608V226.555V226.502V226.448V226.395V226.34V226.286V226.231V226.175V226.119V226.063V226.007V225.95V225.893V225.835V225.777V225.718V225.66V225.6V225.541V225.481V225.42V225.359V225.298V225.237V225.175V225.112V225.049V224.986V224.922V224.858V224.794V224.729V224.663V224.597V224.531V224.464V224.397V224.33V224.262V224.193V224.124V224.055V223.985V223.915V223.844V223.773V223.702V223.629V223.557V223.484V223.41V223.337V223.262V223.187V223.112V223.036V222.96V222.883V222.806V222.728V222.65V222.571V222.492V222.412V222.332V222.251V222.17V222.088V222.006V221.923V221.84V221.756V221.672V221.587V221.501V221.415V221.329V221.242V221.155V221.067V220.978V220.889V220.8V220.709V220.619V220.528V220.436V220.343V220.251V220.157V220.063V219.969V219.874V219.778V219.682V219.585V219.487C507.801 216.516 505.711 214.139 502.613 211.795C499.477 209.422 494.82 206.733 488.785 203.249L488.679 203.188L488.298 202.968C476.418 196.109 469.962 192.381 461.949 192.381Z" fill="#474C59" stroke="#474C59" stroke-width="3"/>
<path d="M506.292 219.487H417.574V244.487L417.597 244.487C417.597 248.881 423.721 252.416 435.968 259.487C448.215 266.558 454.339 270.094 461.949 270.094C469.558 270.094 475.682 266.558 487.929 259.487C500.177 252.416 506.301 248.881 506.301 244.487C506.301 244.395 506.298 244.302 506.292 244.21V219.487Z" fill="url(#paint11_linear_1902_542)"/>
<path d="M435.968 204.487C448.215 197.416 454.339 193.881 461.949 193.881C469.558 193.881 475.682 197.416 487.93 204.487C500.177 211.558 506.301 215.094 506.301 219.487C506.301 223.881 500.177 227.416 487.93 234.487C475.682 241.558 469.558 245.094 461.949 245.094C454.339 245.094 448.215 241.558 435.968 234.487C423.721 227.416 417.597 223.881 417.597 219.487C417.597 215.094 423.721 211.558 435.968 204.487Z" fill="url(#paint12_linear_1902_542)"/>
<path fill-rule="evenodd" clip-rule="evenodd" d="M465.154 204.373C468.769 205.496 473.018 207.378 477.104 209.737C481.19 212.096 484.45 214.55 486.396 216.637C487.363 217.673 488.064 218.681 488.328 219.578C488.582 220.439 488.505 221.488 487.208 222.237C485.91 222.987 484.093 223.031 482.602 222.884C482.281 222.853 481.951 222.81 481.614 222.758C481.668 222.874 481.716 222.989 481.758 223.103C482.096 224.026 482.112 225.179 480.712 225.988C479.415 226.737 477.598 226.781 476.107 226.634C475.785 226.603 475.455 226.56 475.119 226.508C475.173 226.625 475.221 226.739 475.262 226.853C475.601 227.776 475.617 228.929 474.217 229.738C472.919 230.487 471.103 230.531 469.612 230.384C469.29 230.353 468.96 230.31 468.623 230.258C468.678 230.375 468.726 230.489 468.767 230.603C469.106 231.526 469.122 232.679 467.722 233.488C466.424 234.237 464.607 234.281 463.116 234.134C461.561 233.982 459.817 233.577 458.021 233.019C454.407 231.895 450.157 230.013 446.071 227.654C441.985 225.295 438.726 222.842 436.779 220.755C435.813 219.718 435.112 218.711 434.847 217.813C434.594 216.952 434.67 215.903 435.968 215.154C437.368 214.346 439.366 214.355 440.965 214.551C441.161 214.575 441.36 214.602 441.561 214.634C441.471 214.439 441.397 214.249 441.343 214.063C441.089 213.202 441.165 212.153 442.463 211.404C443.863 210.596 445.861 210.605 447.46 210.801C447.656 210.825 447.855 210.852 448.057 210.884C447.966 210.689 447.893 210.499 447.838 210.313C447.584 209.452 447.66 208.403 448.958 207.654C450.358 206.846 452.356 206.855 453.955 207.051C454.151 207.075 454.35 207.102 454.552 207.134C454.462 206.939 454.388 206.749 454.333 206.563C454.08 205.702 454.156 204.653 455.454 203.904C456.751 203.155 458.568 203.111 460.059 203.257C461.614 203.41 463.359 203.815 465.154 204.373ZM447.328 216.359C447.316 216.347 447.303 216.334 447.29 216.322C447.142 216.175 447.002 216.03 446.869 215.887C446.007 214.964 445.528 214.212 445.367 213.668C445.258 213.295 445.323 213.131 445.358 213.076C445.459 213.055 445.8 213.007 446.614 213.107C447.621 213.23 448.96 213.539 450.56 214.053C452.543 215.953 455.486 218.09 459.062 220.154C462.637 222.219 466.338 223.918 469.629 225.063C470.52 225.987 471.055 226.76 471.268 227.341C471.441 227.811 471.358 228.008 471.321 228.066C471.227 228.086 470.942 228.124 470.296 228.061C469.354 227.968 468.052 227.691 466.452 227.194C466.206 227.117 465.955 227.036 465.699 226.951C465.678 226.943 465.656 226.936 465.635 226.929C462.613 225.912 459.012 224.292 455.453 222.238C451.894 220.183 449.089 218.104 447.328 216.359ZM444.065 217.803C442.465 217.289 441.126 216.98 440.119 216.857C439.305 216.757 438.964 216.805 438.862 216.826C438.828 216.881 438.762 217.045 438.872 217.418C439.032 217.962 439.512 218.714 440.374 219.637C442.084 221.471 445.072 223.744 448.958 225.988C452.844 228.231 456.78 229.956 459.957 230.944C461.557 231.441 462.859 231.718 463.801 231.811C464.447 231.874 464.731 231.836 464.826 231.816C464.863 231.758 464.946 231.561 464.773 231.091C464.56 230.51 464.025 229.737 463.134 228.813C459.843 227.668 456.142 225.969 452.566 223.904C448.991 221.84 446.048 219.703 444.065 217.803ZM472.13 223.179C472.152 223.186 472.173 223.193 472.194 223.201C472.45 223.286 472.701 223.367 472.947 223.444C474.547 223.941 475.85 224.218 476.791 224.311C477.437 224.374 477.722 224.336 477.816 224.316C477.853 224.258 477.936 224.061 477.764 223.591C477.55 223.009 477.015 222.236 476.124 221.312C472.833 220.167 469.132 218.468 465.557 216.404C461.982 214.34 459.04 212.203 457.056 210.304C455.456 209.789 454.116 209.48 453.109 209.357C452.295 209.257 451.954 209.305 451.853 209.326C451.818 209.381 451.753 209.545 451.863 209.918C452.023 210.462 452.503 211.214 453.364 212.137C453.497 212.28 453.637 212.425 453.785 212.572C453.798 212.584 453.811 212.597 453.823 212.609C455.584 214.354 458.389 216.433 461.948 218.488C465.507 220.542 469.109 222.162 472.13 223.179Z" fill="#6E7CA5"/>
<g filter="url(#filter1_d_1902_542)">
<rect x="309.5" y="88.5" width="176" height="42" rx="5.5" fill="white"/>
<rect x="309.5" y="88.5" width="176" height="42" rx="5.5" stroke="#C0C9E0"/>
<path d="M329.794 117.252C326.842 117.252 324.862 115.632 324.862 111.33V103.752H326.95V111.456C326.95 114.444 328.138 115.416 329.794 115.416C331.45 115.416 332.692 114.444 332.692 111.456V103.752H334.708V111.33C334.708 115.632 332.728 117.252 329.794 117.252ZM340.008 117.252C338.496 117.252 337.938 116.28 337.938 114.678V102.672H340.026V114.786C340.026 115.344 340.26 115.542 340.512 115.542C340.602 115.542 340.674 115.542 340.854 115.506L341.124 117.072C340.854 117.162 340.53 117.252 340.008 117.252ZM346.629 117.252C344.415 117.252 343.623 115.848 343.623 113.778V108.756H342.183V107.208L343.731 107.1L343.965 104.364H345.693V107.1H348.285V108.756H345.693V113.796C345.693 114.966 346.125 115.596 347.151 115.596C347.493 115.596 347.907 115.47 348.213 115.344L348.591 116.874C348.033 117.054 347.367 117.252 346.629 117.252ZM350.436 117V107.1H352.128L352.308 108.882H352.362C353.064 107.604 354.108 106.848 355.17 106.848C355.656 106.848 355.962 106.92 356.268 107.064L355.908 108.864C355.566 108.756 355.314 108.702 354.9 108.702C354.108 108.702 353.136 109.278 352.524 110.844V117H350.436ZM359.561 117.252C357.869 117.252 356.663 116.118 356.663 114.372C356.663 112.248 358.463 111.15 362.567 110.7C362.549 109.548 362.135 108.54 360.695 108.54C359.651 108.54 358.661 109.026 357.833 109.566L357.059 108.144C358.067 107.514 359.471 106.848 361.055 106.848C363.521 106.848 364.655 108.414 364.655 111.06V117H362.945L362.783 115.884H362.711C361.811 116.658 360.749 117.252 359.561 117.252ZM360.209 115.596C361.073 115.596 361.757 115.2 362.567 114.444V112.032C359.633 112.374 358.661 113.112 358.661 114.228C358.661 115.2 359.327 115.596 360.209 115.596ZM367.574 117V107.1H369.266L369.446 108.486H369.5C370.346 107.586 371.336 106.848 372.56 106.848C374.036 106.848 374.864 107.532 375.278 108.666C376.268 107.64 377.276 106.848 378.518 106.848C380.588 106.848 381.542 108.27 381.542 110.772V117H379.472V111.042C379.472 109.314 378.95 108.648 377.834 108.648C377.15 108.648 376.43 109.08 375.602 109.98V117H373.532V111.042C373.532 109.314 373.01 108.648 371.876 108.648C371.21 108.648 370.454 109.08 369.662 109.98V117H367.574ZM388.533 117.252C386.067 117.252 383.871 115.344 383.871 112.068C383.871 108.756 386.067 106.848 388.533 106.848C390.981 106.848 393.195 108.756 393.195 112.068C393.195 115.344 390.981 117.252 388.533 117.252ZM388.533 115.542C390.081 115.542 391.071 114.156 391.071 112.068C391.071 109.962 390.081 108.576 388.533 108.576C386.967 108.576 386.013 109.962 386.013 112.068C386.013 114.156 386.967 115.542 388.533 115.542ZM399.049 117.252C396.565 117.252 394.981 115.344 394.981 112.068C394.981 108.846 397.015 106.848 399.211 106.848C400.345 106.848 401.083 107.28 401.875 107.964L401.785 106.326V102.672H403.873V117H402.163L402.001 115.902H401.947C401.191 116.658 400.165 117.252 399.049 117.252ZM399.553 115.524C400.363 115.524 401.083 115.146 401.785 114.318V109.494C401.065 108.828 400.363 108.576 399.625 108.576C398.239 108.576 397.123 109.908 397.123 112.032C397.123 114.282 398.005 115.524 399.553 115.524ZM411.107 117.252C408.407 117.252 406.283 115.326 406.283 112.068C406.283 108.846 408.497 106.848 410.801 106.848C413.411 106.848 414.833 108.738 414.833 111.546C414.833 111.96 414.797 112.356 414.743 112.608H408.317C408.479 114.498 409.667 115.614 411.377 115.614C412.259 115.614 412.997 115.344 413.735 114.876L414.455 116.208C413.537 116.82 412.403 117.252 411.107 117.252ZM408.281 111.168H413.033C413.033 109.458 412.277 108.486 410.837 108.486C409.595 108.486 408.497 109.44 408.281 111.168ZM417.162 117V107.1H418.854L419.034 108.882H419.088C419.79 107.604 420.834 106.848 421.896 106.848C422.382 106.848 422.688 106.92 422.994 107.064L422.634 108.864C422.292 108.756 422.04 108.702 421.626 108.702C420.834 108.702 419.862 109.278 419.25 110.844V117H417.162ZM424.527 117V107.1H426.219L426.399 108.486H426.453C427.353 107.586 428.379 106.848 429.729 106.848C431.835 106.848 432.771 108.27 432.771 110.772V117H430.683V111.042C430.683 109.314 430.179 108.648 429.027 108.648C428.109 108.648 427.479 109.116 426.615 109.98V117H424.527ZM437.308 117L434.608 103.752H436.768L437.992 110.646C438.244 112.05 438.478 113.472 438.712 114.912H438.784C439.072 113.472 439.378 112.05 439.684 110.646L441.376 103.752H443.23L444.94 110.646C445.264 112.032 445.534 113.472 445.858 114.912H445.948C446.164 113.472 446.398 112.05 446.614 110.646L447.874 103.752H449.872L447.262 117H444.67L442.906 109.638C442.672 108.612 442.474 107.622 442.294 106.614H442.222C442.024 107.622 441.79 108.612 441.592 109.638L439.846 117H437.308ZM455.984 117.252C453.284 117.252 451.16 115.326 451.16 112.068C451.16 108.846 453.374 106.848 455.678 106.848C458.288 106.848 459.71 108.738 459.71 111.546C459.71 111.96 459.674 112.356 459.62 112.608H453.194C453.356 114.498 454.544 115.614 456.254 115.614C457.136 115.614 457.874 115.344 458.612 114.876L459.332 116.208C458.414 116.82 457.28 117.252 455.984 117.252ZM453.158 111.168H457.91C457.91 109.458 457.154 108.486 455.714 108.486C454.472 108.486 453.374 109.44 453.158 111.168ZM466.665 117.252C465.765 117.252 464.757 116.784 463.929 115.974H463.857L463.677 117H462.039V102.672H464.127V106.452L464.037 108.144C464.901 107.406 465.945 106.848 467.007 106.848C469.509 106.848 470.931 108.846 470.931 111.888C470.931 115.29 468.897 117.252 466.665 117.252ZM466.269 115.524C467.691 115.524 468.789 114.246 468.789 111.924C468.789 109.854 468.105 108.576 466.449 108.576C465.693 108.576 464.937 108.99 464.127 109.782V114.624C464.865 115.29 465.657 115.524 466.269 115.524Z" fill="#2D3339"/>
<g filter="url(#filter2_i_1902_542)">
<path d="M396.793 137.293C397.183 137.683 397.817 137.683 398.207 137.293L405.5 130H389.5L396.793 137.293Z" fill="white"/>
</g>
</g>
<g filter="url(#filter3_d_1902_542)">
<g clip-path="url(#clip2_1902_542)">
<rect width="105" height="41" rx="20.5" transform="matrix(0.866025 0.5 -0.866025 0.5 363.075 267.973)" fill="#474C59"/>
<path d="M357.062 293.501L369.81 286.141L373.135 288.061C377.05 290.321 377.102 292.851 372.945 295.251C368.788 297.651 364.302 297.681 360.491 295.481L357.062 293.501ZM360.734 293.721L361.877 294.381C364.613 295.961 367.714 295.891 370.883 294.061C374.053 292.231 374.088 290.491 371.351 288.911L370.208 288.251L360.734 293.721ZM372.741 302.833C370.142 301.333 369.952 299.083 373.087 297.273C376.187 295.483 380.24 295.603 382.457 296.883C384.969 298.333 384.518 300.173 381.816 301.733C381.418 301.963 381.002 302.163 380.708 302.273L374.525 298.703C372.862 299.843 372.931 301.123 374.577 302.073C375.425 302.563 376.395 302.823 377.556 302.973L376.967 304.113C375.494 303.943 373.988 303.553 372.741 302.833ZM375.876 297.883L380.448 300.523C382.094 299.573 382.301 298.613 380.916 297.813C379.721 297.123 377.746 297.043 375.876 297.883ZM381.165 307.697C379.849 306.937 379.052 305.837 378.896 304.867L381.131 304.657C381.321 305.527 381.702 306.247 382.742 306.847C383.867 307.497 384.959 307.487 385.686 307.067C386.535 306.577 385.859 305.727 385.218 304.917C384.422 303.897 383.694 302.697 385.322 301.757C386.916 300.837 389.393 300.887 391.523 302.117C392.787 302.847 393.324 303.757 393.48 304.547L391.315 304.717C391.125 304.067 390.813 303.467 390.033 303.017C388.977 302.407 387.972 302.427 387.314 302.807C386.5 303.277 387.106 303.987 387.782 304.817C388.613 305.877 389.462 307.067 387.678 308.097C386.067 309.027 383.504 309.047 381.165 307.697ZM387.132 310.862L396.658 305.362L398.667 306.522L389.141 312.022L387.132 310.862ZM399.447 304.912C398.702 304.482 398.684 303.932 399.412 303.512C400.122 303.102 401.075 303.112 401.819 303.542C402.547 303.962 402.599 304.532 401.889 304.942C401.161 305.362 400.174 305.332 399.447 304.912ZM391.117 318.103C388.831 316.783 388.017 315.333 389.662 314.383C390.476 313.913 391.723 313.773 393.126 313.983L393.213 313.933C393.022 313.463 393.161 312.963 393.94 312.513C394.685 312.083 395.845 312.013 396.763 312.103L396.833 312.063C396.677 311.413 396.971 310.523 398.097 309.873C400.262 308.623 403.259 308.893 405.216 310.023C405.77 310.343 406.151 310.683 406.376 310.973L409.736 312.913L408.23 313.783L406.428 312.743C406.411 313.173 406.047 313.683 405.32 314.103C403.224 315.313 400.47 315.083 398.461 313.923C398.045 313.683 397.647 313.353 397.404 312.993C396.85 312.973 396.348 313.003 395.88 313.273C395.326 313.593 395.36 314.033 396.556 314.723L398.322 315.743C400.574 317.043 401.059 318.123 399.431 319.063C397.595 320.123 394.165 319.863 391.117 318.103ZM399.743 313.183C400.73 313.753 402.323 313.773 403.588 313.043C404.869 312.303 404.8 311.423 403.796 310.843C402.808 310.273 401.284 310.233 400.002 310.973C398.738 311.703 398.773 312.623 399.743 313.183ZM392.728 317.513C394.39 318.473 396.296 318.633 397.162 318.133C397.959 317.673 397.595 317.163 396.434 316.493L394.997 315.663C394.546 315.403 394.165 315.143 393.871 314.853C392.866 314.773 392.139 314.913 391.654 315.193C390.736 315.723 391.152 316.603 392.728 317.513ZM402.135 319.524L411.661 314.024L413.289 314.964L412.129 315.834L412.181 315.864C413.913 315.864 415.61 316.024 416.909 316.774C418.936 317.944 418.468 319.254 416.061 320.644L410.068 324.104L408.059 322.944L413.792 319.634C415.454 318.674 415.61 318.024 414.502 317.384C413.618 316.874 412.562 316.784 410.899 316.784L404.144 320.684L402.135 319.524Z" fill="white"/>
</g>
<rect x="8.9407e-08" y="-1.5" width="108" height="44" rx="22" transform="matrix(0.866025 0.5 -0.866025 0.5 361.776 267.223)" stroke="white" stroke-width="3"/>
</g>
<path d="M273.616 433.187C273.616 433.285 273.626 433.383 273.644 433.478L273.645 433.48C273.654 433.538 273.67 433.621 273.695 433.724C273.746 433.929 273.833 434.195 273.986 434.493C274.299 435.103 274.855 435.78 275.8 436.325L308.663 455.298C309.901 456.013 311.429 456.328 312.877 456.328C314.324 456.328 315.853 456.013 317.091 455.298L383.775 416.798C384.704 416.262 385.253 415.596 385.567 415.003C385.721 414.713 385.811 414.454 385.864 414.258C385.887 414.178 385.902 414.111 385.912 414.063C385.943 413.942 385.96 413.817 385.96 413.687C385.96 413.559 385.96 413.255 385.96 412.824C385.96 411.704 385.96 409.733 385.96 407.825C385.96 406.504 385.96 405.211 385.959 404.248C385.959 403.767 385.958 403.368 385.958 403.089C385.958 403.017 385.958 402.954 385.957 402.898C385.957 402.845 385.957 402.799 385.957 402.762L385.956 402.669L385.956 402.631C385.956 402.626 385.955 402.61 385.954 402.592V402.592C385.954 402.587 385.953 402.562 385.951 402.531C385.846 401.19 384.934 400.145 383.775 399.476L350.913 380.503C349.675 379.788 348.146 379.474 346.699 379.474C345.251 379.474 343.723 379.788 342.485 380.503L275.8 419.004C274.658 419.663 273.756 420.686 273.63 422.001C273.627 422.028 273.626 422.048 273.625 422.054L273.625 422.055C273.623 422.083 273.622 422.105 273.622 422.112L273.622 422.112C273.622 422.131 273.621 422.149 273.621 422.16C273.621 422.186 273.62 422.22 273.62 422.258C273.619 422.335 273.619 422.447 273.619 422.587C273.618 422.867 273.617 423.266 273.616 423.747C273.615 424.71 273.615 426.003 273.615 427.324C273.615 429.23 273.615 431.201 273.616 432.322C273.616 432.754 273.616 433.059 273.616 433.187ZM275.116 434.687C274.747 434.687 274.466 434.562 274.267 434.423C274.515 434.594 274.811 434.687 275.116 434.687Z" fill="#474C59" stroke="#474C59" stroke-width="3" stroke-linejoin="round"/>
<path d="M343.234 392.612C345.148 391.507 348.249 391.507 350.163 392.612L367.708 402.741H384.459V413.544C384.46 413.571 384.46 413.599 384.459 413.626V413.773H384.449C384.374 414.433 383.899 415.08 383.025 415.585L316.341 454.085C314.427 455.19 311.326 455.19 309.412 454.085L276.55 435.112C275.664 434.601 275.189 433.942 275.123 433.273H275.116L275.116 433.153C275.115 433.126 275.115 433.098 275.116 433.071L275.116 422.241H291.914L343.234 392.612Z" fill="url(#paint13_linear_1902_542)"/>
<path d="M343.234 381.888C345.148 380.784 348.249 380.784 350.163 381.888L383.025 400.861C384.938 401.966 384.938 403.757 383.025 404.861L316.341 443.362C314.427 444.466 311.326 444.466 309.412 443.362L276.55 424.388C274.637 423.284 274.637 421.493 276.55 420.388L343.234 381.888Z" fill="url(#paint14_linear_1902_542)"/>
<path d="M344.356 386.829C345.716 386.044 347.921 386.044 349.282 386.829L373.8 400.985C375.161 401.77 375.161 403.044 373.8 403.829L325.899 431.485C324.539 432.27 322.333 432.27 320.973 431.485L296.454 417.329C295.094 416.544 295.094 415.27 296.454 414.485L344.356 386.829Z" fill="url(#paint15_linear_1902_542)"/>
<circle cx="5" cy="5" r="5" transform="matrix(0.866025 0.5 -0.866026 0.5 300.442 423.348)" fill="url(#paint16_linear_1902_542)"/>
<path d="M145.582 345.816V345.906C145.581 345.944 145.581 345.982 145.582 346.02V356.63C145.581 356.668 145.581 356.705 145.582 356.743V356.847C145.582 356.967 145.596 357.084 145.623 357.196C145.819 358.412 146.685 359.362 147.766 359.986L236.101 410.986C237.339 411.701 238.868 412.015 240.315 412.015C241.762 412.015 243.291 411.701 244.529 410.986L311.213 372.486C312.43 371.783 313.378 370.661 313.398 369.231L313.398 369.21L313.399 358.463C313.399 357.014 312.443 355.874 311.213 355.164L222.879 304.164C221.641 303.449 220.112 303.134 218.665 303.134C217.217 303.134 215.689 303.449 214.451 304.164L147.766 342.664C146.671 343.296 145.796 344.264 145.615 345.502C145.593 345.604 145.582 345.71 145.582 345.816Z" fill="#474C59" stroke="#474C59" stroke-width="3" stroke-linejoin="round"/>
<path d="M215.201 316.272C217.114 315.168 220.216 315.168 222.129 316.272L295.354 358.549H311.899V369.296C311.888 370.012 311.41 370.726 310.464 371.272L243.779 409.773C241.866 410.877 238.764 410.877 236.851 409.773L148.516 358.773C147.631 358.261 147.155 357.603 147.089 356.933H147.082L147.082 356.813C147.081 356.786 147.081 356.759 147.082 356.732L147.082 345.902H163.881L215.201 316.272Z" fill="url(#paint17_linear_1902_542)"/>
<path d="M215.201 305.549C217.114 304.444 220.216 304.444 222.129 305.549L310.464 356.549C312.377 357.653 312.377 359.444 310.464 360.549L243.779 399.049C241.866 400.154 238.764 400.154 236.851 399.049L148.516 348.049C146.603 346.944 146.603 345.154 148.516 344.049L215.201 305.549Z" fill="url(#paint18_linear_1902_542)"/>
<path d="M216.322 310.49C217.682 309.705 219.888 309.705 221.248 310.49L301.625 356.896C302.986 357.681 302.986 358.955 301.625 359.74L242.899 393.646C241.538 394.431 239.333 394.431 237.972 393.646L157.595 347.24C156.235 346.455 156.235 345.181 157.595 344.396L216.322 310.49Z" fill="url(#paint19_linear_1902_542)"/>
<path d="M379.034 444.825L391.845 472.429L426.845 452.221L379.034 444.825ZM403.282 462.325L459.141 494.575L465.203 491.075L409.345 458.825L403.282 462.325Z" fill="#C0C9E0"/>
<path d="M182.387 428.51C178.625 426.338 178.501 423.842 183.593 420.902L192.073 416.006L195.128 417.77L186.378 422.822C183.198 424.658 183.24 425.93 185.048 426.974C186.856 428.018 189.122 428.078 192.302 426.242L201.052 421.19L204.003 422.894L195.523 427.79C190.431 430.73 186.149 430.682 182.387 428.51ZM194.824 435.69C193.266 434.79 192.206 433.41 192.018 432.198L195.323 431.874C195.573 432.954 196.071 433.794 197.152 434.418C198.316 435.09 199.376 435.102 200.104 434.682C200.956 434.19 200.145 433.242 199.397 432.282C198.503 431.094 197.734 429.642 199.709 428.502C201.766 427.314 204.905 427.422 207.565 428.958C209.249 429.93 209.893 431.094 210.101 432.078L206.879 432.33C206.651 431.526 206.235 430.806 205.383 430.314C204.323 429.702 203.388 429.69 202.702 430.086C201.87 430.566 202.598 431.37 203.408 432.342C204.365 433.566 205.258 434.994 203.117 436.23C201.06 437.418 197.838 437.43 194.824 435.69ZM206.861 442.64C203.598 440.756 203.307 437.996 207.152 435.776C210.935 433.592 215.923 433.784 218.667 435.368C221.888 437.228 221.202 439.52 217.981 441.38C217.399 441.716 216.796 441.992 216.443 442.124L209.251 437.972C207.609 439.232 207.88 440.516 209.605 441.512C210.54 442.052 211.662 442.364 213.034 442.556L212.161 444.236C210.228 444.032 208.295 443.468 206.861 442.64ZM211.247 436.772L216.006 439.52C217.586 438.608 217.877 437.624 216.38 436.76C215.154 436.052 213.2 435.932 211.247 436.772ZM214.158 446.516L225.776 439.808L228.25 441.236L226.441 442.568L226.504 442.604C228.873 442.196 230.952 442.46 232.157 443.156C232.781 443.516 233.072 443.78 233.259 444.08L230.12 445.292C229.808 444.992 229.58 444.764 229.081 444.476C228.187 443.96 226.462 443.684 224.134 444.284L217.213 448.28L214.158 446.516Z" fill="#2D3339"/>
<path d="M421.637 469.151L499.579 514.151C509.145 519.674 524.654 519.674 534.22 514.151L612.162 469.151" stroke="#C0C9E0" stroke-width="7"/>
<path d="M553.316 433.901L657.239 493.901L657.239 503.901L553.316 443.901L553.316 433.901Z" fill="#A4B5DE"/>
<rect width="240" height="10" transform="matrix(0.866025 -0.5 2.20305e-08 1 657.24 493.901)" fill="#BDCEF8"/>
<path d="M761.163 314.151L865.086 374.151L657.24 494.151L553.317 434.151L761.163 314.151Z" fill="#CDDBFD"/>
<g filter="url(#filter4_d_1902_542)">
<g clip-path="url(#clip3_1902_542)">
<rect width="164" height="41" rx="20.5" transform="matrix(0.866025 0.5 -0.866025 0.5 516.18 443.325)" fill="#3479FF"/>
<path d="M514.714 471.758C511.423 469.858 511.7 467.078 515.822 464.698C519.927 462.328 524.638 462.228 527.929 464.128C531.203 466.018 531.029 468.738 526.925 471.108C522.802 473.488 517.987 473.648 514.714 471.758ZM516.48 470.738C518.593 471.958 521.884 471.638 524.863 469.918C527.842 468.198 528.293 466.358 526.18 465.138C524.049 463.908 520.88 464.178 517.901 465.898C514.921 467.618 514.35 469.508 516.48 470.738ZM519.111 478.477L532.5 470.747L534.128 471.687L533.245 472.397L533.297 472.427C534.838 472.497 536.449 472.747 537.523 473.367C539.931 474.757 539.376 476.657 536.432 478.357C533.176 480.237 529.33 480.197 527.183 478.957C526.334 478.467 525.849 477.747 525.745 476.887L524.204 477.857L521.121 479.637L519.111 478.477ZM528.464 477.777C529.833 478.567 532.119 478.467 534.353 477.177C536.345 476.027 536.917 474.937 535.323 474.017C534.596 473.597 533.487 473.417 531.929 473.397L527.269 476.087C527.373 476.887 527.876 477.437 528.464 477.777ZM537.625 484.986C535.027 483.486 534.836 481.236 537.971 479.426C541.072 477.636 545.125 477.756 547.342 479.036C549.853 480.486 549.403 482.326 546.701 483.886C546.303 484.116 545.887 484.316 545.592 484.426L539.409 480.856C537.746 481.996 537.815 483.276 539.461 484.226C540.31 484.716 541.28 484.976 542.44 485.126L541.851 486.266C540.379 486.096 538.872 485.706 537.625 484.986ZM540.76 480.036L545.333 482.676C546.978 481.726 547.186 480.766 545.8 479.966C544.605 479.276 542.631 479.196 540.76 480.036ZM543.694 488.21L553.22 482.71L554.849 483.65L553.688 484.52L553.74 484.55C555.472 484.55 557.17 484.71 558.469 485.46C560.495 486.63 560.027 487.94 557.62 489.33L551.627 492.79L549.618 491.63L555.351 488.32C557.014 487.36 557.17 486.71 556.061 486.07C555.178 485.56 554.121 485.47 552.458 485.47L545.703 489.37L543.694 488.21ZM557.967 491.671L559.456 490.811L564.029 493.451L562.539 494.311L557.967 491.671ZM563.822 500.111C562.055 499.091 561.137 497.761 561.155 496.411L563.735 496.281C563.718 497.331 564.394 498.401 565.623 499.111C567.147 499.991 568.724 500.081 569.815 499.451C570.975 498.781 570.473 498.071 569.798 497.101L568.81 495.631C568.083 494.631 567.702 493.291 569.555 492.221C571.564 491.061 574.82 491.201 577.245 492.601C578.752 493.471 579.532 494.641 579.497 495.761L577.193 495.891C577.089 495.031 576.622 494.261 575.496 493.611C574.197 492.861 572.742 492.741 571.737 493.321C570.646 493.951 571.252 494.781 571.859 495.631L572.881 497.061C573.747 498.301 573.902 499.471 572.032 500.551C569.988 501.731 566.611 501.721 563.822 500.111ZM574.36 506.195C571.987 504.825 571.71 502.545 574.862 500.725C578.049 498.885 581.998 499.045 584.371 500.415C586.727 501.775 587.021 504.065 583.834 505.905C580.682 507.725 576.715 507.555 574.36 506.195ZM576.005 505.245C577.495 506.105 579.781 505.885 581.79 504.725C583.817 503.555 584.198 502.235 582.708 501.375C581.201 500.505 578.95 500.745 576.923 501.915C574.914 503.075 574.498 504.375 576.005 505.245ZM583.994 511.757C581.967 510.587 582.418 509.287 584.843 507.887L590.836 504.427L592.827 505.577L587.077 508.897C585.432 509.847 585.276 510.497 586.402 511.147C587.285 511.657 588.307 511.767 590.108 511.647L596.725 507.827L598.716 508.977L589.19 514.477L587.545 513.527L588.826 512.607L588.774 512.577C586.904 512.657 585.31 512.517 583.994 511.757ZM592.171 516.199L601.698 510.699L603.326 511.639L601.784 512.729L601.836 512.759C603.741 512.439 605.473 512.599 606.495 513.189C606.963 513.459 607.188 513.669 607.344 513.919L605.266 514.719C605.04 514.469 604.85 514.299 604.452 514.069C603.689 513.629 602.2 513.409 600.104 513.939L594.18 517.359L592.171 516.199ZM602.625 522.514C600.062 521.034 599.923 518.834 603.075 517.014C606.262 515.174 610.298 515.384 612.81 516.834C614.022 517.534 614.42 518.324 614.472 519.074L612.221 519.254C612.151 518.694 611.892 518.224 611.251 517.854C609.623 516.914 607.163 517.034 605.137 518.204C603.127 519.364 602.885 520.764 604.478 521.684C605.275 522.144 606.366 522.334 607.423 522.384L606.903 523.624C605.275 523.564 603.734 523.154 602.625 522.514ZM611.153 527.437C608.554 525.937 608.364 523.687 611.499 521.877C614.599 520.087 618.652 520.207 620.869 521.487C623.381 522.937 622.93 524.777 620.228 526.337C619.83 526.567 619.414 526.767 619.12 526.877L612.937 523.307C611.274 524.447 611.343 525.727 612.988 526.677C613.837 527.167 614.807 527.427 615.968 527.577L615.379 528.717C613.906 528.547 612.4 528.157 611.153 527.437ZM614.288 522.487L618.86 525.127C620.506 524.177 620.713 523.217 619.328 522.417C618.133 521.727 616.158 521.647 614.288 522.487Z" fill="white"/>
</g>
<rect x="8.9407e-08" y="-1.5" width="167" height="44" rx="22" transform="matrix(0.866025 0.5 -0.866025 0.5 514.881 442.575)" stroke="white" stroke-width="3"/>
</g>
<path d="M618.113 385.728C618.361 382.59 620.574 379.493 624.725 377.097C631.891 372.959 642.672 372.18 651.2 374.76C665.196 370.044 682.649 371.896 693.352 378.075C701.824 382.966 705.204 390.324 702.509 396.919C702.883 397.105 703.346 397.378 703.757 397.62C703.905 397.707 704.045 397.79 704.173 397.864C709.352 400.934 712.099 405.062 711.821 409.212L618.113 385.728ZM618.113 385.728C618.1 385.901 618.105 386.571 618.113 386.725L618.113 385.728ZM713.321 409.26V435.464C713.349 435.913 713.348 436.363 713.318 436.811L713.317 436.821L713.316 436.831L713.297 437.071L713.296 437.081L713.295 437.091C712.895 441.36 710.116 445.425 704.955 448.404C699.449 451.584 692.325 453.113 685.285 453.098C678.245 453.082 671.124 451.52 665.622 448.343L665.621 448.343L623.809 424.187C619.298 421.582 616.821 418.185 616.615 414.307L616.615 414.306L616.615 414.304L713.321 409.26ZM713.321 409.26C713.626 404.337 710.35 399.782 704.938 396.574L704.93 396.569L704.923 396.565C704.822 396.507 704.701 396.435 704.567 396.356C704.496 396.315 704.422 396.271 704.345 396.226C706.521 389.047 702.448 381.594 694.102 376.776C683.118 370.434 665.472 368.534 651.174 373.189C642.392 370.673 631.426 371.496 623.975 375.798C619.569 378.341 616.918 381.809 616.618 385.609L616.618 385.61C616.598 385.858 616.605 386.516 616.613 386.755L616.613 413.39C616.599 413.695 616.599 413.999 616.615 414.304L713.321 409.26Z" fill="#3258C2" stroke="#3258C2" stroke-width="3"/>
<path d="M711.97 436.974C711.627 440.642 709.029 444.252 704.176 447.054C693.73 453.085 676.795 453.085 666.349 447.054L624.695 423.005C620.457 420.558 618.253 417.382 618.084 414.176L618.083 414.174C618.069 413.908 618.07 413.642 618.083 413.376L618.083 385.676L639.208 385.676V400.75C643.3 400.597 647.449 401.083 651.17 402.208C664.554 397.77 681.932 398.853 693.368 405.456C694.999 406.397 696.436 407.409 697.678 408.474H711.99V435.535C712.016 435.934 712.016 436.334 711.99 436.734V436.974H711.97Z" fill="url(#paint20_linear_1902_542)"/>
<path d="M624.695 395.505C615.866 390.407 615.866 382.143 624.695 377.046C631.861 372.908 642.642 372.129 651.17 374.708C664.554 370.27 681.932 371.353 693.368 377.956C702.276 383.099 705.383 390.323 702.688 396.918C703.197 397.171 703.693 397.436 704.176 397.715C714.621 403.746 714.621 413.523 704.176 419.554C693.73 425.585 676.795 425.585 666.349 419.554L643.846 406.562C643.842 406.559 643.837 406.557 643.833 406.554C643.829 406.552 643.825 406.549 643.82 406.547L624.695 395.505Z" fill="url(#paint21_linear_1902_542)"/>
<path d="M673.204 376.272C670.812 374.891 666.935 374.891 664.543 376.272C662.152 377.653 662.152 379.891 664.543 381.272C665.212 381.658 665.996 381.936 666.832 382.106L666.832 384.066C665.47 384.351 664.192 384.808 663.1 385.439C661.076 386.608 660.079 388.145 660.111 389.677L657.795 389.677C657.401 389.043 656.763 388.447 655.883 387.939C652.694 386.098 647.525 386.098 644.336 387.939C641.147 389.78 641.147 392.765 644.336 394.605C647.525 396.446 652.694 396.446 655.883 394.605C657.141 393.879 657.902 392.976 658.168 392.034L661.015 392.034C661.508 392.664 662.203 393.254 663.1 393.772C664.53 394.598 666.279 395.127 668.118 395.36L667.391 399.136C665.819 399.303 664.316 399.737 663.1 400.439C659.911 402.28 659.911 405.265 663.1 407.105C666.289 408.946 671.458 408.946 674.647 407.105C677.836 405.265 677.836 402.28 674.647 400.439C673.722 399.905 672.629 399.525 671.467 399.301L672.219 395.395C674.166 395.183 676.027 394.642 677.534 393.772C679.005 392.923 679.933 391.879 680.318 390.784L681.862 390.784C682.157 391.267 682.639 391.72 683.307 392.105C685.699 393.486 689.576 393.486 691.967 392.105C694.359 390.725 694.359 388.486 691.967 387.105C689.576 385.725 685.699 385.725 683.307 387.105C682.639 387.491 682.157 387.944 681.862 388.427L680.318 388.427C679.933 387.332 679.005 386.288 677.534 385.439C675.693 384.376 673.324 383.804 670.915 383.723L670.915 382.106C671.75 381.936 672.535 381.658 673.204 381.272C675.595 379.891 675.595 377.653 673.204 376.272Z" fill="white"/>
<g clip-path="url(#clip4_1902_542)">
<path d="M762.428 299.006L762.378 298.95L762.322 298.899C761.629 298.266 760.812 297.763 759.936 297.552L759.83 297.527L759.721 297.517L730.676 294.89C730.173 294.785 729.654 294.779 729.151 294.905L728.956 294.887L728.547 295.12L715.134 302.766C713.873 303.434 713.391 304.801 713.391 306.107V325.236C713.391 347.352 725.601 373.875 743.638 391.226C744.405 391.964 745.337 392.548 746.339 392.741C753.103 394.044 759.182 393.187 764.181 390.374L764.188 390.37L777.642 382.704L777.644 382.703C786.32 377.746 791.242 367.163 791.242 353.157V334.019C791.242 331.99 790.148 329.727 788.6 328.28L762.428 299.006Z" fill="#3258C2" stroke="#3258C2" stroke-width="3"/>
<path d="M759.586 299.011C760.148 299.146 760.747 299.491 761.31 300.006L787.529 329.333C788.84 330.532 789.742 332.441 789.742 334.019L789.742 353.157C789.742 366.857 784.936 376.809 776.9 381.401L776.924 381.403L763.473 389.069L748.595 387.72L757.891 382.421C740.173 365.308 728.231 339.233 728.231 317.635L728.231 305.213L715.839 304.09L729.29 296.424L729.313 296.426C729.636 296.295 730.019 296.272 730.445 296.375L759.586 299.011Z" fill="url(#paint22_linear_1902_542)"/>
<path fill-rule="evenodd" clip-rule="evenodd" d="M746.245 306.668C746.808 306.804 747.406 307.149 747.969 307.664L774.189 336.991C775.5 338.19 776.402 340.099 776.402 341.677L776.402 360.815C776.402 382.46 764.406 394.75 746.622 391.324C745.991 391.203 745.309 390.809 744.678 390.202C726.89 373.09 714.891 346.943 714.891 325.293L714.891 306.164C714.891 304.586 715.793 303.717 717.105 304.033L746.245 306.668Z" fill="url(#paint23_linear_1902_542)"/>
<path d="M728.769 324.223C728.769 321.461 730.708 320.342 733.099 321.723C735.491 323.103 737.429 326.461 737.429 329.223C737.429 331.984 735.491 333.103 733.099 331.723C730.708 330.342 728.769 326.984 728.769 324.223Z" fill="white"/>
<path d="M751.863 337.556C751.863 334.794 753.802 333.675 756.193 335.056C758.585 336.437 760.523 339.794 760.523 342.556C760.523 345.317 758.585 346.437 756.193 345.056C753.802 343.675 751.863 340.317 751.863 337.556Z" fill="white"/>
<path d="M740.316 344.223C740.316 341.461 742.255 340.342 744.646 341.723C747.038 343.103 748.976 346.461 748.976 349.223C748.976 351.984 747.038 353.103 744.646 351.723C742.255 350.342 740.316 346.984 740.316 344.223Z" fill="white"/>
<path d="M751.863 364.223C751.863 361.461 753.802 360.342 756.193 361.723C758.585 363.103 760.523 366.461 760.523 369.223C760.523 371.984 758.585 373.103 756.193 371.723C753.802 370.342 751.863 366.984 751.863 364.223Z" fill="white"/>
<path d="M728.769 350.889C728.769 348.128 730.708 347.008 733.099 348.389C735.491 349.77 737.429 353.128 737.429 355.889C737.429 358.651 735.491 359.77 733.099 358.389C730.708 357.008 728.769 353.651 728.769 350.889Z" fill="white"/>
<path d="M740.316 330.889C740.316 329.969 740.962 329.596 741.76 330.056L747.533 333.389C748.33 333.849 748.976 334.969 748.976 335.889C748.976 336.81 748.33 337.183 747.533 336.723L741.76 333.389C740.962 332.929 740.316 331.81 740.316 330.889Z" fill="white"/>
<path d="M740.316 357.556C740.316 356.635 740.962 356.262 741.76 356.723L747.533 360.056C748.33 360.516 748.976 361.635 748.976 362.556C748.976 363.476 748.33 363.849 747.533 363.389L741.76 360.056C740.962 359.596 740.316 358.476 740.316 357.556Z" fill="white"/>
<path d="M733.099 335.056C733.896 335.516 734.543 336.635 734.543 337.556L734.543 344.223C734.543 345.143 733.896 345.516 733.099 345.056C732.302 344.596 731.656 343.476 731.656 342.556L731.656 335.889C731.656 334.969 732.302 334.596 733.099 335.056Z" fill="white"/>
<path d="M756.193 348.389C756.99 348.849 757.637 349.969 757.637 350.889L757.637 357.556C757.637 358.476 756.99 358.849 756.193 358.389C755.396 357.929 754.75 356.81 754.75 355.889L754.75 349.223C754.75 348.302 755.396 347.929 756.193 348.389Z" fill="white"/>
</g>
<path d="M829.288 261.506L863.929 281.506C873.495 287.029 873.495 295.983 863.929 301.506L829.288 321.506" stroke="#474C59" stroke-width="4" stroke-dasharray="4 4"/>
<path d="M807.867 332.573C807.867 333.354 808.964 333.988 810.316 333.988H832.362C833.715 333.988 834.811 333.354 834.811 332.573C834.811 331.792 833.715 331.159 832.362 331.159H812.766V319.846C812.766 319.064 811.669 318.431 810.316 318.431C808.964 318.431 807.867 319.064 807.867 319.846V332.573ZM812.048 333.573L813.882 332.515L810.418 330.515L808.584 331.573L812.048 333.573ZM817.548 330.398L821.215 328.281L817.751 326.281L814.084 328.398L817.548 330.398ZM824.882 326.164L828.548 324.047L825.084 322.047L821.418 324.164L824.882 326.164ZM832.215 321.93L834.048 320.872L830.584 318.872L828.751 319.93L832.215 321.93Z" fill="#474C59"/>
<path d="M349.34 45.5292L383.981 25.5292C393.547 20.0063 409.057 20.0063 418.622 25.5292L453.263 45.5292" stroke="#474C59" stroke-width="4" stroke-dasharray="4 4"/>
<path d="M324.891 58.2309C324.891 59.0119 325.988 59.6451 327.34 59.6451H349.386C350.739 59.6451 351.835 59.0119 351.835 58.2309C351.835 57.4498 350.739 56.8167 349.386 56.8167H329.79V45.503C329.79 44.7219 328.693 44.0888 327.34 44.0888C325.988 44.0888 324.891 44.7219 324.891 45.503V58.2309ZM329.072 59.2309L330.906 58.1724L327.442 56.1724L325.608 57.2309L329.072 59.2309ZM334.572 56.0555L338.239 53.9385L334.775 51.9385L331.108 54.0555L334.572 56.0555ZM341.906 51.8216L345.572 49.7046L342.108 47.7046L338.442 49.8216L341.906 51.8216ZM349.239 47.5877L351.072 46.5292L347.608 44.5292L345.775 45.5877L349.239 47.5877Z" fill="#474C59"/>
<defs>
<filter id="filter0_d_1902_542" x="-5.12708" y="145.973" width="209.454" height="126" filterUnits="userSpaceOnUse" color-interpolation-filters="sRGB">
<feFlood flood-opacity="0" result="BackgroundImageFix"/>
<feColorMatrix in="SourceAlpha" type="matrix" values="0 0 0 0 0 0 0 0 0 0 0 0 0 0 0 0 0 0 127 0" result="hardAlpha"/>
<feOffset dy="2"/>
<feGaussianBlur stdDeviation="3"/>
<feColorMatrix type="matrix" values="0 0 0 0 0 0 0 0 0 0 0 0 0 0 0 0 0 0 0.15 0"/>
<feBlend mode="normal" in2="BackgroundImageFix" result="effect1_dropShadow_1902_542"/>
<feBlend mode="normal" in="SourceGraphic" in2="effect1_dropShadow_1902_542" result="shape"/>
</filter>
<filter id="filter1_d_1902_542" x="303" y="80" width="189" height="66" filterUnits="userSpaceOnUse" color-interpolation-filters="sRGB">
<feFlood flood-opacity="0" result="BackgroundImageFix"/>
<feColorMatrix in="SourceAlpha" type="matrix" values="0 0 0 0 0 0 0 0 0 0 0 0 0 0 0 0 0 0 127 0" result="hardAlpha"/>
<feOffset dy="2"/>
<feGaussianBlur stdDeviation="3"/>
<feColorMatrix type="matrix" values="0 0 0 0 0 0 0 0 0 0 0 0 0 0 0 0 0 0 0.15 0"/>
<feBlend mode="normal" in2="BackgroundImageFix" result="effect1_dropShadow_1902_542"/>
<feBlend mode="normal" in="SourceGraphic" in2="effect1_dropShadow_1902_542" result="shape"/>
</filter>
<filter id="filter2_i_1902_542" x="389.5" y="130" width="16" height="7.58582" filterUnits="userSpaceOnUse" color-interpolation-filters="sRGB">
<feFlood flood-opacity="0" result="BackgroundImageFix"/>
<feBlend mode="normal" in="SourceGraphic" in2="BackgroundImageFix" result="shape"/>
<feColorMatrix in="SourceAlpha" type="matrix" values="0 0 0 0 0 0 0 0 0 0 0 0 0 0 0 0 0 0 127 0" result="hardAlpha"/>
<feOffset dy="-1.5"/>
<feComposite in2="hardAlpha" operator="arithmetic" k2="-1" k3="1"/>
<feColorMatrix type="matrix" values="0 0 0 0 0.760784 0 0 0 0 0.760784 0 0 0 0 0.760784 0 0 0 1 0"/>
<feBlend mode="normal" in2="shape" result="effect1_innerShadow_1902_542"/>
</filter>
<filter id="filter3_d_1902_542" x="321.568" y="263.973" width="138.44" height="85" filterUnits="userSpaceOnUse" color-interpolation-filters="sRGB">
<feFlood flood-opacity="0" result="BackgroundImageFix"/>
<feColorMatrix in="SourceAlpha" type="matrix" values="0 0 0 0 0 0 0 0 0 0 0 0 0 0 0 0 0 0 127 0" result="hardAlpha"/>
<feOffset dy="2"/>
<feGaussianBlur stdDeviation="3"/>
<feColorMatrix type="matrix" values="0 0 0 0 0 0 0 0 0 0 0 0 0 0 0 0 0 0 0.15 0"/>
<feBlend mode="normal" in2="BackgroundImageFix" result="effect1_dropShadow_1902_542"/>
<feBlend mode="normal" in="SourceGraphic" in2="effect1_dropShadow_1902_542" result="shape"/>
</filter>
<filter id="filter4_d_1902_542" x="474.673" y="439.325" width="189.535" height="114.5" filterUnits="userSpaceOnUse" color-interpolation-filters="sRGB">
<feFlood flood-opacity="0" result="BackgroundImageFix"/>
<feColorMatrix in="SourceAlpha" type="matrix" values="0 0 0 0 0 0 0 0 0 0 0 0 0 0 0 0 0 0 127 0" result="hardAlpha"/>
<feOffset dy="2"/>
<feGaussianBlur stdDeviation="3"/>
<feColorMatrix type="matrix" values="0 0 0 0 0 0 0 0 0 0 0 0 0 0 0 0 0 0 0.15 0"/>
<feBlend mode="normal" in2="BackgroundImageFix" result="effect1_dropShadow_1902_542"/>
<feBlend mode="normal" in="SourceGraphic" in2="effect1_dropShadow_1902_542" result="shape"/>
</filter>
<linearGradient id="paint0_linear_1902_542" x1="247.52" y1="17.82" x2="219.183" y2="63.4881" gradientUnits="userSpaceOnUse">
<stop stop-color="#CFD8EF"/>
<stop offset="1" stop-color="#D5DAE9"/>
</linearGradient>
<linearGradient id="paint1_linear_1902_542" x1="295.747" y1="80.969" x2="324.204" y2="34.9794" gradientUnits="userSpaceOnUse">
<stop stop-color="#CAD1E7"/>
<stop offset="1" stop-color="#B4BDD8"/>
</linearGradient>
<linearGradient id="paint2_linear_1902_542" x1="272.975" y1="50.9926" x2="250.392" y2="99.3327" gradientUnits="userSpaceOnUse">
<stop stop-color="#EDF1FD"/>
<stop offset="1" stop-color="#E1E5F1"/>
</linearGradient>
<linearGradient id="paint3_linear_1902_542" x1="189.9" y1="74.9441" x2="189.9" y2="153.072" gradientUnits="userSpaceOnUse">
<stop stop-color="#9DA4B9"/>
<stop offset="1" stop-color="#808BAB"/>
</linearGradient>
<linearGradient id="paint4_linear_1902_542" x1="150.608" y1="154.673" x2="131.098" y2="144.52" gradientUnits="userSpaceOnUse">
<stop stop-color="#CAD1E7"/>
<stop offset="1" stop-color="#B4BDD8"/>
</linearGradient>
<linearGradient id="paint5_linear_1902_542" x1="181.692" y1="161.46" x2="174.072" y2="135.967" gradientUnits="userSpaceOnUse">
<stop stop-color="#CAD1E7"/>
<stop offset="1" stop-color="#B4BDD8"/>
</linearGradient>
<linearGradient id="paint6_linear_1902_542" x1="219.298" y1="121.645" x2="201.805" y2="151.314" gradientUnits="userSpaceOnUse">
<stop stop-color="#CFD8EF"/>
<stop offset="1" stop-color="#D5DAE9"/>
</linearGradient>
<linearGradient id="paint7_linear_1902_542" x1="189.9" y1="50.7416" x2="159.887" y2="114.987" gradientUnits="userSpaceOnUse">
<stop stop-color="#EDF1FD"/>
<stop offset="1" stop-color="#E1E5F1"/>
</linearGradient>
<linearGradient id="paint8_linear_1902_542" x1="150.608" y1="130.47" x2="131.098" y2="120.317" gradientUnits="userSpaceOnUse">
<stop stop-color="#CAD1E7"/>
<stop offset="1" stop-color="#B4BDD8"/>
</linearGradient>
<linearGradient id="paint9_linear_1902_542" x1="181.692" y1="137.258" x2="174.072" y2="111.764" gradientUnits="userSpaceOnUse">
<stop stop-color="#CAD1E7"/>
<stop offset="1" stop-color="#B4BDD8"/>
</linearGradient>
<linearGradient id="paint10_linear_1902_542" x1="219.298" y1="97.4429" x2="201.805" y2="127.112" gradientUnits="userSpaceOnUse">
<stop stop-color="#CFD8EF"/>
<stop offset="1" stop-color="#D5DAE9"/>
</linearGradient>
<linearGradient id="paint11_linear_1902_542" x1="506.301" y1="248.938" x2="417.574" y2="248.938" gradientUnits="userSpaceOnUse">
<stop stop-color="#D1D8EF"/>
<stop offset="0.398949" stop-color="#D8E1FB"/>
<stop offset="0.607454" stop-color="#B5BED9"/>
<stop offset="1" stop-color="#B4BDD8"/>
</linearGradient>
<linearGradient id="paint12_linear_1902_542" x1="417.544" y1="193.911" x2="420.98" y2="250.318" gradientUnits="userSpaceOnUse">
<stop stop-color="#EDF1FD"/>
<stop offset="1" stop-color="#E1E5F1"/>
</linearGradient>
<linearGradient id="paint13_linear_1902_542" x1="384.46" y1="430.96" x2="275.115" y2="430.96" gradientUnits="userSpaceOnUse">
<stop stop-color="#D1D8EF"/>
<stop offset="0.610162" stop-color="#D8E1FB"/>
<stop offset="0.69247" stop-color="#B5BED9"/>
<stop offset="1" stop-color="#B4BDD8"/>
</linearGradient>
<linearGradient id="paint14_linear_1902_542" x1="275.05" y1="381.097" x2="279.285" y2="450.629" gradientUnits="userSpaceOnUse">
<stop stop-color="#EDF1FD"/>
<stop offset="1" stop-color="#E1E5F1"/>
</linearGradient>
<linearGradient id="paint15_linear_1902_542" x1="330.936" y1="386.177" x2="348.18" y2="424.189" gradientUnits="userSpaceOnUse">
<stop stop-color="#8495C7"/>
<stop offset="1" stop-color="#92A2D0"/>
</linearGradient>
<linearGradient id="paint16_linear_1902_542" x1="4.47208" y1="-0.0137766" x2="9.33012" y2="6.16919" gradientUnits="userSpaceOnUse">
<stop stop-color="#8495C7"/>
<stop offset="1" stop-color="#92A2D0"/>
</linearGradient>
<linearGradient id="paint17_linear_1902_542" x1="311.899" y1="354.621" x2="147.081" y2="354.621" gradientUnits="userSpaceOnUse">
<stop stop-color="#D1D8EF"/>
<stop offset="0.400167" stop-color="#D8E1FB"/>
<stop offset="0.472975" stop-color="#B5BED9"/>
<stop offset="1" stop-color="#B4BDD8"/>
</linearGradient>
<linearGradient id="paint18_linear_1902_542" x1="146.984" y1="304.777" x2="153.367" y2="409.584" gradientUnits="userSpaceOnUse">
<stop stop-color="#EDF1FD"/>
<stop offset="1" stop-color="#E1E5F1"/>
</linearGradient>
<linearGradient id="paint19_linear_1902_542" x1="221.899" y1="309.785" x2="253.626" y2="379.726" gradientUnits="userSpaceOnUse">
<stop stop-color="#8495C7"/>
<stop offset="1" stop-color="#92A2D0"/>
</linearGradient>
<linearGradient id="paint20_linear_1902_542" x1="713.232" y1="410.476" x2="617.232" y2="410.476" gradientUnits="userSpaceOnUse">
<stop stop-color="#9CB6FF"/>
<stop offset="0.267632" stop-color="#91ADFF"/>
<stop offset="0.439507" stop-color="#618AFF"/>
<stop offset="1" stop-color="#3564E6"/>
</linearGradient>
<linearGradient id="paint21_linear_1902_542" x1="618.017" y1="372.063" x2="621.369" y2="429.402" gradientUnits="userSpaceOnUse">
<stop stop-color="#88A7FF"/>
<stop offset="1" stop-color="#A3BBFF"/>
</linearGradient>
<linearGradient id="paint22_linear_1902_542" x1="719.213" y1="300.888" x2="761.771" y2="393.666" gradientUnits="userSpaceOnUse">
<stop stop-color="#6F93F8"/>
<stop offset="0.147964" stop-color="#8FACFF"/>
<stop offset="0.229046" stop-color="#AEC4FF"/>
<stop offset="0.55746" stop-color="#BED0FF"/>
<stop offset="0.62351" stop-color="#A0B9FF"/>
<stop offset="1" stop-color="#6E92F9"/>
</linearGradient>
<linearGradient id="paint23_linear_1902_542" x1="724.774" y1="378.864" x2="715.427" y2="295.145" gradientUnits="userSpaceOnUse">
<stop stop-color="#618AFF"/>
<stop offset="1" stop-color="#3261E4"/>
</linearGradient>
<clipPath id="clip0_1902_542">
<rect width="187" height="41" rx="20.5" transform="matrix(0.866025 0.5 -0.866025 0.5 36.38 149.973)" fill="white"/>
</clipPath>
<clipPath id="clip1_1902_542">
<rect width="120" height="120" fill="white" transform="translate(129.98 51.6024)"/>
</clipPath>
<clipPath id="clip2_1902_542">
<rect width="105" height="41" rx="20.5" transform="matrix(0.866025 0.5 -0.866025 0.5 363.075 267.973)" fill="white"/>
</clipPath>
<clipPath id="clip3_1902_542">
<rect width="164" height="41" rx="20.5" transform="matrix(0.866025 0.5 -0.866025 0.5 516.18 443.325)" fill="white"/>
</clipPath>
<clipPath id="clip4_1902_542">
<rect width="120" height="120" fill="white" transform="translate(692.316 282.223)"/>
</clipPath>
</defs>
</svg>
